REM DIRINDEX 1\2,1\3,1\4,1\5,1\6
REM DIRNAME folder01,folder02,folder03,folder04,folder05,folder06
TITLE ""
FILE "Disc6Track56.mp3" MP3
  TRACK 01 AUDIO
    TITLE "3:cjc030_12044"
    INDEX 01 00:00:00
  TRACK 02 AUDIO
    TITLE "0:"
    INDEX 01 00:00:70
  TRACK 03 AUDIO
    TITLE "4:cjc030_12045"
    INDEX 01 00:01:05
  TRACK 04 AUDIO
    TITLE "0:"
    INDEX 01 00:02:51
  TRACK 05 AUDIO
    TITLE "5:cjc030_12046"
    INDEX 01 00:02:59
  TRACK 06 AUDIO
    TITLE "0:"
    INDEX 01 00:03:61
  TRACK 07 AUDIO
    TITLE "6:cjc030_12047"
    INDEX 01 00:03:72
  TRACK 08 AUDIO
    TITLE "0:"
    INDEX 01 00:07:45
  TRACK 09 AUDIO
    TITLE "3:cjc030_12048"
    INDEX 01 00:08:19
  TRACK 10 AUDIO
    TITLE "0:"
    INDEX 01 00:09:12
  TRACK 11 AUDIO
    TITLE "4:cjc030_12049"
    INDEX 01 00:09:24
  TRACK 12 AUDIO
    TITLE "0:"
    INDEX 01 00:10:25
  TRACK 13 AUDIO
    TITLE "5:cjc030_12050"
    INDEX 01 00:10:35
  TRACK 14 AUDIO
    TITLE "0:"
    INDEX 01 00:11:31
  TRACK 15 AUDIO
    TITLE "6:cjc030_12051"
    INDEX 01 00:11:39
  TRACK 16 AUDIO
    TITLE "0:"
    INDEX 01 00:13:43
  TRACK 17 AUDIO
    TITLE "3:cjc030_12052"
    INDEX 01 00:14:15
  TRACK 18 AUDIO
    TITLE "0:"
    INDEX 01 00:15:15
  TRACK 19 AUDIO
    TITLE "4:cjc030_12053"
    INDEX 01 00:15:23
  TRACK 20 AUDIO
    TITLE "0:"
    INDEX 01 00:16:71
  TRACK 21 AUDIO
    TITLE "5:cjc030_12054"
    INDEX 01 00:17:06
  TRACK 22 AUDIO
    TITLE "0:"
    INDEX 01 00:18:05
  TRACK 23 AUDIO
    TITLE "6:cjc030_12055"
    INDEX 01 00:18:17
  TRACK 24 AUDIO
    TITLE "0:"
    INDEX 01 00:22:48
  TRACK 25 AUDIO
    TITLE "3:cjc030_12056"
    INDEX 01 00:23:18
  TRACK 26 AUDIO
    TITLE "0:"
    INDEX 01 00:24:22
  TRACK 27 AUDIO
    TITLE "4:cjc030_12057"
    INDEX 01 00:24:31
  TRACK 28 AUDIO
    TITLE "0:"
    INDEX 01 00:28:70
  TRACK 29 AUDIO
    TITLE "5:cjc030_12058"
    INDEX 01 00:29:05
  TRACK 30 AUDIO
    TITLE "0:"
    INDEX 01 00:30:10
  TRACK 31 AUDIO
    TITLE "6:cjc030_12059"
    INDEX 01 00:30:20
  TRACK 32 AUDIO
    TITLE "0:"
    INDEX 01 00:33:56
  TRACK 33 AUDIO
    TITLE "3:cjc030_12060"
    INDEX 01 00:34:26
  TRACK 34 AUDIO
    TITLE "0:"
    INDEX 01 00:35:37
  TRACK 35 AUDIO
    TITLE "4:cjc030_12061"
    INDEX 01 00:35:47
  TRACK 36 AUDIO
    TITLE "0:"
    INDEX 01 00:36:38
  TRACK 37 AUDIO
    TITLE "5:cjc030_12062"
    INDEX 01 00:36:48
  TRACK 38 AUDIO
    TITLE "0:"
    INDEX 01 00:37:57
  TRACK 39 AUDIO
    TITLE "6:cjc030_12063"
    INDEX 01 00:37:69
  TRACK 40 AUDIO
    TITLE "0:"
    INDEX 01 00:41:04
  TRACK 41 AUDIO
    TITLE "3:cjc030_12064"
    INDEX 01 00:41:47
  TRACK 42 AUDIO
    TITLE "0:"
    INDEX 01 00:42:51
  TRACK 43 AUDIO
    TITLE "4:cjc030_12065"
    INDEX 01 00:42:61
  TRACK 44 AUDIO
    TITLE "0:"
    INDEX 01 00:43:60
  TRACK 45 AUDIO
    TITLE "5:cjc030_12066"
    INDEX 01 00:43:70
  TRACK 46 AUDIO
    TITLE "0:"
    INDEX 01 00:44:73
  TRACK 47 AUDIO
    TITLE "6:cjc030_12067"
    INDEX 01 00:45:10
  TRACK 48 AUDIO
    TITLE "0:"
    INDEX 01 00:48:32
  TRACK 49 AUDIO
    TITLE "3:cjc030_12068"
    INDEX 01 00:49:04
  TRACK 50 AUDIO
    TITLE "0:"
    INDEX 01 00:50:13
  TRACK 51 AUDIO
    TITLE "4:cjc030_12069"
    INDEX 01 00:50:21
  TRACK 52 AUDIO
    TITLE "0:"
    INDEX 01 00:52:30
  TRACK 53 AUDIO
    TITLE "5:cjc030_12070"
    INDEX 01 00:52:39
  TRACK 54 AUDIO
    TITLE "0:"
    INDEX 01 00:53:51
  TRACK 55 AUDIO
    TITLE "6:cjc030_12071"
    INDEX 01 00:53:60
  TRACK 56 AUDIO
    TITLE "0:"
    INDEX 01 00:56:18
  TRACK 57 AUDIO
    TITLE "3:cjc030_12072"
    INDEX 01 00:56:67
  TRACK 58 AUDIO
    TITLE "0:"
    INDEX 01 00:57:62
  TRACK 59 AUDIO
    TITLE "4:cjc030_12073"
    INDEX 01 00:57:74
  TRACK 60 AUDIO
    TITLE "0:"
    INDEX 01 00:59:67
  TRACK 61 AUDIO
    TITLE "5:cjc030_12074"
    INDEX 01 01:00:00
  TRACK 62 AUDIO
    TITLE "0:"
    INDEX 01 01:00:74
  TRACK 63 AUDIO
    TITLE "3:cjc030_12075"
    INDEX 01 01:01:54
  TRACK 64 AUDIO
    TITLE "0:"
    INDEX 01 01:02:55
  TRACK 65 AUDIO
    TITLE "4:cjc030_12076"
    INDEX 01 01:02:69
  TRACK 66 AUDIO
    TITLE "0:"
    INDEX 01 01:06:20
  TRACK 67 AUDIO
    TITLE "5:cjc030_12077"
    INDEX 01 01:06:28
  TRACK 68 AUDIO
    TITLE "0:"
    INDEX 01 01:07:33
  TRACK 69 AUDIO
    TITLE "6:cjc030_12078"
    INDEX 01 01:07:41
  TRACK 70 AUDIO
    TITLE "0:"
    INDEX 01 01:11:11
  TRACK 71 AUDIO
    TITLE "3:cjc030_12079"
    INDEX 01 01:11:58
  TRACK 72 AUDIO
    TITLE "0:"
    INDEX 01 01:12:64
  TRACK 73 AUDIO
    TITLE "4:cjc030_12080"
    INDEX 01 01:13:00
  TRACK 74 AUDIO
    TITLE "0:"
    INDEX 01 01:14:70
  TRACK 75 AUDIO
    TITLE "5:cjc030_12081"
    INDEX 01 01:15:03
  TRACK 76 AUDIO
    TITLE "0:"
    INDEX 01 01:16:12
  TRACK 77 AUDIO
    TITLE "6:cjc030_12082"
    INDEX 01 01:16:22
  TRACK 78 AUDIO
    TITLE "0:"
    INDEX 01 01:19:38
  TRACK 79 AUDIO
    TITLE "3:cjc030_12083"
    INDEX 01 01:20:10
  TRACK 80 AUDIO
    TITLE "0:"
    INDEX 01 01:21:14
  TRACK 81 AUDIO
    TITLE "4:cjc030_12084"
    INDEX 01 01:21:25
  TRACK 82 AUDIO
    TITLE "0:"
    INDEX 01 01:22:35
  TRACK 83 AUDIO
    TITLE "5:cjc030_12085"
    INDEX 01 01:22:48
  TRACK 84 AUDIO
    TITLE "0:"
    INDEX 01 01:23:50
  TRACK 85 AUDIO
    TITLE "3:cjc030_12086"
    INDEX 01 01:24:24
  TRACK 86 AUDIO
    TITLE "0:"
    INDEX 01 01:25:29
  TRACK 87 AUDIO
    TITLE "4:cjc030_12087"
    INDEX 01 01:25:39
  TRACK 88 AUDIO
    TITLE "0:"
    INDEX 01 01:26:62
  TRACK 89 AUDIO
    TITLE "5:cjc030_12088"
    INDEX 01 01:26:72
  TRACK 90 AUDIO
    TITLE "0:"
    INDEX 01 01:28:02
  TRACK 91 AUDIO
    TITLE "6:cjc030_12089"
    INDEX 01 01:28:14
  TRACK 92 AUDIO
    TITLE "0:"
    INDEX 01 01:30:07
  TRACK 93 AUDIO
    TITLE "3:cjc030_12090"
    INDEX 01 01:30:52
  TRACK 94 AUDIO
    TITLE "0:"
    INDEX 01 01:31:55
  TRACK 95 AUDIO
    TITLE "4:cjc030_12091"
    INDEX 01 01:31:65
  TRACK 96 AUDIO
    TITLE "0:"
    INDEX 01 01:33:60
  TRACK 97 AUDIO
    TITLE "5:cjc030_12092"
    INDEX 01 01:33:68
  TRACK 98 AUDIO
    TITLE "0:"
    INDEX 01 01:34:73
  TRACK 99 AUDIO
    TITLE "6:cjc030_12093"
    INDEX 01 01:35:10
  TRACK 100 AUDIO
    TITLE "0:"
    INDEX 01 01:39:47
